<svg width="600" height="400" viewBox="0 0 600 400" xmlns="http://www.w3.org/2000/svg">
    <rect width="600" height="400" fill="#f8f9fa" rx="12"/>
    <rect width="600" height="50" fill="#003366" rx="12 12 0 0"/>
    <circle cx="20" cy="25" r="5" fill="#ff5f56"/>
    <circle cx="40" cy="25" r="5" fill="#ffbd2e"/>
    <circle cx="60" cy="25" r="5" fill="#27c93f"/>
    <rect x="0" y="50" width="120" height="350" fill="#ffffff" stroke="#eee"/>
    <rect x="15" y="70" width="90" height="8" rx="4" fill="#e7f3ff"/>
    <rect x="15" y="90" width="90" height="8" rx="4" fill="#eee"/>
    <rect x="15" y="110" width="90" height="8" rx="4" fill="#eee"/>
    
        <text x="140" y="40" font-family="sans-serif" font-weight="bold" font-size="14" fill="white">Nueva Factura</text>
        <rect x="140" y="70" width="440" height="310" rx="8" fill="white" stroke="#eee"/>
        <text x="160" y="100" font-family="sans-serif" font-weight="bold" font-size="16" fill="#003366">FACTURA #INV-2025-001</text>
        <rect x="160" y="120" width="200" height="30" rx="4" fill="#f8f9fa" stroke="#ddd"/>
        <text x="170" y="140" font-family="sans-serif" font-size="12" fill="#666">Cliente: Mi Empresa S.L.</text>
        <rect x="160" y="170" width="400" height="1" fill="#eee"/>
        <text x="160" y="195" font-family="sans-serif" font-weight="bold" font-size="12">Concepto</text>
        <text x="500" y="195" font-family="sans-serif" font-weight="bold" font-size="12">Importe</text>
        <rect x="160" y="210" width="400" height="30" rx="4" fill="#f8f9fa"/>
        <text x="170" y="230" font-family="sans-serif" font-size="12">Servicios de Consultoría</text>
        <text x="500" y="230" font-family="sans-serif" font-size="12">1.200,00€</text>
        <rect x="400" y="260" width="160" height="80" rx="4" fill="#003366"/>
        <text x="415" y="285" font-family="sans-serif" font-size="12" fill="white">Base: 1.200,00€</text>
        <text x="415" y="305" font-family="sans-serif" font-size="12" fill="white">IVA (21%): 252,00€</text>
        <text x="415" y="325" font-family="sans-serif" font-weight="bold" font-size="14" fill="white">TOTAL: 1.452,00€</text>
        <rect x="160" y="300" width="50" height="50" fill="#333"/>
        <text x="220" y="320" font-family="sans-serif" font-size="10" font-weight="bold" fill="#28a745">Veri*factu QR</text>
    
</svg>