<svg width="800" height="500" viewBox="0 0 800 500" xmlns="http://www.w3.org/2000/svg">
  <!-- Background -->
  <rect width="800" height="500" rx="20" fill="#F8FAFC"/>
  
  <!-- Main Document (Quote) -->
  <rect x="200" y="60" width="400" height="380" rx="8" fill="#FFFFFF" stroke="#E2E8F0" stroke-width="2"/>
  <rect x="200" y="60" width="400" height="50" rx="8 8 0 0" fill="#3B82F6"/>
  <text x="220" y="92" font-family="Inter, sans-serif" font-size="18" font-weight="700" fill="#FFFFFF">QUOTE #QT-2023-08</text>
  
  <!-- Line Items -->
  <rect x="220" y="130" width="360" height="1" fill="#E2E8F0"/>
  <rect x="220" y="145" width="200" height="8" rx="4" fill="#94A3B8" opacity="0.3"/>
  <rect x="500" y="145" width="60" height="8" rx="4" fill="#1E293B"/>
  
  <rect x="220" y="175" width="360" height="1" fill="#E2E8F0"/>
  <rect x="220" y="190" width="180" height="8" rx="4" fill="#94A3B8" opacity="0.3"/>
  <rect x="500" y="190" width="60" height="8" rx="4" fill="#1E293B"/>
  
  <rect x="220" y="220" width="360" height="1" fill="#E2E8F0"/>
  
  <!-- Total Section -->
  <rect x="420" y="240" width="160" height="60" rx="8" fill="#F1F5F9"/>
  <text x="440" y="275" font-family="Inter, sans-serif" font-size="14" font-weight="500" fill="#64748B">Total:</text>
  <text x="500" y="275" font-family="Inter, sans-serif" font-size="18" font-weight="700" fill="#1E293B">€2,450</text>
  
  <!-- Action Buttons -->
  <rect x="220" y="320" width="120" height="36" rx="18" fill="#10B981"/>
  <text x="280" y="343" text-anchor="middle" font-family="Inter, sans-serif" font-size="12" font-weight="600" fill="#FFFFFF">Convert to Invoice</text>
  
  <rect x="350" y="320" width="80" height="36" rx="18" fill="#FFFFFF" stroke="#3B82F6" stroke-width="1"/>
  <text x="390" y="343" text-anchor="middle" font-family="Inter, sans-serif" font-size="12" font-weight="600" fill="#3B82F6">Send Quote</text>
  
  <!-- Floating Elements -->
  <circle cx="650" cy="150" r="40" fill="#3B82F6" opacity="0.1"/>
  <path d="M635 150 L645 160 L665 140" stroke="#3B82F6" stroke-width="4" fill="none" stroke-linecap="round"/>
  
  <rect x="100" y="300" width="120" height="60" rx="12" fill="#FFFFFF" stroke="#E2E8F0" stroke-width="1" transform="rotate(-5 100 300)"/>
  <text x="160" y="335" text-anchor="middle" font-family="Inter, sans-serif" font-size="14" font-weight="700" fill="#10B981" transform="rotate(-5 100 300)">ACCEPTED</text>
</svg>
