<svg width="800" height="500" viewBox="0 0 800 500" xmlns="http://www.w3.org/2000/svg">
  <!-- Background -->
  <rect width="800" height="500" rx="20" fill="#F0FDF4"/>
  
  <!-- Chart Container -->
  <rect x="150" y="80" width="500" height="340" rx="12" fill="#FFFFFF" stroke="#DCFCE7" stroke-width="2"/>
  
  <!-- Bar Chart -->
  <rect x="250" y="300" width="30" height="60" rx="4" fill="#BBF7D0"/>
  <rect x="300" y="240" width="30" height="120" rx="4" fill="#86EFAC"/>
  <rect x="350" y="200" width="30" height="160" rx="4" fill="#4ADE80"/>
  <rect x="400" y="280" width="30" height="80" rx="4" fill="#BBF7D0"/>
  <rect x="450" y="220" width="30" height="140" rx="4" fill="#86EFAC"/>
  <rect x="500" y="160" width="30" height="200" rx="4" fill="#22C55E"/>
  
  <line x1="220" y1="360" x2="560" y2="360" stroke="#E2E8F0" stroke-width="1"/>
  
  <!-- Line Chart Overlay -->
  <path d="M265 280 Q340 200 415 250 T565 150" fill="none" stroke="#166534" stroke-width="3" stroke-linecap="round"/>
  
  <!-- Stats Sidebar -->
  <rect x="580" y="100" width="100" height="60" rx="10" fill="#FFFFFF" stroke="#E2E8F0"/>
  <text x="630" y="125" text-anchor="middle" font-family="Inter, sans-serif" font-size="10" font-weight="600" fill="#64748B">Net Profit</text>
  <text x="630" y="145" text-anchor="middle" font-family="Inter, sans-serif" font-size="14" font-weight="700" fill="#166534">+18.2%</text>
  
  <rect x="580" y="180" width="100" height="60" rx="10" fill="#FFFFFF" stroke="#E2E8F0"/>
  <text x="630" y="205" text-anchor="middle" font-family="Inter, sans-serif" font-size="10" font-weight="600" fill="#64748B">Tax Est.</text>
  <text x="630" y="225" text-anchor="middle" font-family="Inter, sans-serif" font-size="14" font-weight="700" fill="#1E293B">€4,250</text>
  
  <!-- Header Text -->
  <text x="290" y="120" font-family="Inter, sans-serif" font-size="20" font-weight="700" fill="#1E293B">Revenue Growth</text>
</svg>
