<svg width="800" height="600" viewBox="0 0 800 600" xmlns="http://www.w3.org/2000/svg">
    <rect width="800" height="600" fill="#f4f7f6" rx="15"/>
    <rect width="800" height="60" fill="#003366" rx="15 15 0 0"/>
    <circle cx="25" cy="30" r="6" fill="#ff5f56"/><circle cx="50" cy="30" r="6" fill="#ffbd2e"/><circle cx="75" cy="30" r="6" fill="#27c93f"/>
    <text x="400" y="38" text-anchor="middle" font-family="sans-serif" font-weight="bold" font-size="16" fill="white">Fakturo Cloud - TicketBAI</text>
    <rect x="0" y="60" width="180" height="540" fill="#ffffff" stroke="#e9ecef"/>
    <rect x="15" y="80" width="150" height="25" rx="6" fill="#f8f9fa"/><rect x="15" y="120" width="150" height="25" rx="6" fill="#f8f9fa"/><rect x="15" y="160" width="150" height="25" rx="6" fill="#f8f9fa"/><rect x="15" y="200" width="150" height="25" rx="6" fill="#f8f9fa"/><rect x="15" y="240" width="150" height="25" rx="6" fill="#f8f9fa"/><rect x="15" y="280" width="150" height="25" rx="6" fill="#e7f3ff"/><rect x="15" y="320" width="150" height="25" rx="6" fill="#f8f9fa"/><rect x="15" y="360" width="150" height="25" rx="6" fill="#f8f9fa"/><rect x="15" y="400" width="150" height="25" rx="6" fill="#f8f9fa"/><rect x="15" y="440" width="150" height="25" rx="6" fill="#f8f9fa"/>
    <rect x="200" y="80" width="580" height="500" rx="10" fill="white" stroke="#e9ecef"/>
    
    <rect x="220" y="160" width="150" height="150" fill="#eee"/>
    <text x="240" y="330" font-weight="bold">Código TBAI Generado</text>
    <text x="240" y="350" font-size="10" fill="#666">QR Oficial de Hacienda Foral</text>

</svg>